<svg viewBox="36.30573248407644 30.508474576271187 229.9363057324841 85.16949152542374" xmlns="http://www.w3.org/2000/svg" id="Ebene_1" style="max-height: 500px" width="229.9363057324841" height="85.16949152542374"><defs><style>.cls-1{fill:#5ab7b2;}.cls-1,.cls-2{stroke-width:0px;}.cls-2{fill:#ffffff;}</style></defs><path d="M61.02,42.88s-.69-.37-.56-1c.05-.31.26-.58.56-.69,0-.35.08-.69.25-1,.26-.28.62-.44,1-.44,0-.33.17-.63.44-.81.34-.2.73-.31,1.13-.31.18-.32.51-.53.87-.56.3-.09.62-.04.87.12.23-.41.66-.66,1.13-.69.48,0,.94.2,1.25.56.35-.17.75-.21,1.13-.12.3.11.56.31.75.56.38-.07.77-.02,1.13.12.23.19.39.46.44.75,0,0,.44-.19.81.37.26.26.38.64.31,1,0,0,.69,0,.69.56.17.43.01.93-.38,1.19-.19.12-.31,1.25-.75,1.81s-1.25.69-1.44.87-.12.69-.38,1-.87,1-3.31,1-3.5-1-3.5-1c-.12-.3-.27-.6-.44-.87-.21-.2-.47-.35-.75-.44-.31-.18-.58-.42-.81-.69-.28-.38-.44-.84-.44-1.31ZM61.02,42.06c0,.07.06.13.12.13.07,0,.13-.06.13-.12h0c0-.19-.12-.19-.12-.19,0,0-.12,0-.12.19ZM61.9,40.94c0,.14.11.25.25.25.12,0,.31-.12.31-.25,0-.17-.14-.31-.31-.31-.12.13-.25.13-.25.31ZM63.15,39.94c0,.12.12.37.31.37.21,0,.38-.17.38-.37h0c0-.22-.16-.41-.38-.44-.19,0-.31.13-.31.44ZM64.58,39.38c0,.25.12.37.44.37.17.04.34-.07.38-.23.01-.05.01-.09,0-.14,0-.31-.12-.44-.38-.44s-.44.13-.44.44ZM66.27,38.94c.05.29.27.51.56.56.3-.03.53-.26.56-.56,0-.31-.25-.56-.56-.56-.44,0-.56.13-.56.56ZM72.4,41.75c0,.07.06.13.12.13s.12-.06.12-.12c0-.07-.06-.13-.12-.13h0c0-.12-.12,0-.12.12ZM71.27,40.63c0,.12.12.31.25.31.17,0,.31-.14.31-.31s-.14-.31-.31-.31c-.12,0-.25.19-.25.31ZM69.96,39.63c0,.24.19.44.44.44.24,0,.44-.19.44-.44h0c0-.13-.19-.44-.44-.44-.2-.04-.4.1-.44.3,0,.05,0,.09,0,.14ZM68.27,39.19c0,.31.12.44.44.44s.38-.12.38-.44-.12-.44-.38-.44c-.23.03-.41.21-.44.44ZM63.15,43.44l.44-.12-.44-.81v.94ZM64.83,43.06c.2-.03.39-.1.56-.19,0,0-.38-1.25-.38-1.37-.21.49-.27,1.03-.19,1.56ZM66.58,40.94s.25,1.69.25,1.56.31-1.56.31-1.56h-.56ZM68.4,42.88h.56c-.04-.53-.12-1.05-.25-1.56,0,.19-.31,1.56-.31,1.56ZM70.65,43.31v-1l-.25.87.25.12ZM64.27,44.63s-.44.12-.25.37.38.19.38.19c.81-.33,1.69-.47,2.56-.44.86-.11,1.74-.03,2.56.25,0,0,.19.19.31,0,.06-.07.06-.18,0-.25-.94-.42-1.97-.61-3-.56-.87.03-1.73.17-2.56.44ZM64.83,46c0,.31,1,.44,2.12.44s2.12-.25,2.12-.44-.94-.38-2.12-.38-2.12.12-2.12.38ZM46.08,73.56c-.69.31-1.25.87-1.56,1.56-.09.47-.13.96-.12,1.44.2.8.24,1.62.12,2.44-.08.6-.12,1.21-.12,1.81,0,0,8.37-4.25,22.87-4.25s22.12,3.81,22.12,3.81c0,0-.12-1.94-.12-2.56v-1.69c.18-.61.09-1.27-.25-1.81-.6-.56-1.27-1.05-2-1.44,0,0-6.25-3.56-19.75-3.56s-21.19,4.25-21.19,4.25h0ZM45.08,92.31c.37-.48.76-.94,1.19-1.37.12-.31.69-.87.69-1.19s-.56-.56-.69-.38-.31.25-.87,1.25c-.26.52-.37,1.11-.31,1.69h0ZM44.96,87.63c0,.19,1.56.75,1.56.56-.03-.71-.12-1.42-.25-2.12-.47.49-.91,1.02-1.31,1.56h0ZM45.08,83.81v2.25s1.56-1,1.56-1.25-1.56-1-1.56-1h0ZM44.52,81.94c-.12.31,2,1.75,2,1.75.13-.85.13-1.71,0-2.56,0-.31-2,.56-2,.81ZM87.27,88.63s-.38.12-.38.87.56.81.81,1.13,1,1.25,1,1.25c-.11-.65-.26-1.3-.44-1.94-.24-.5-.58-.95-1-1.31ZM87.27,85.81c-.12.12-.12.69-.12.81s-.12,1,0,1.19,1.56-.44,1.56-.75-1.25-1.44-1.44-1.25ZM87.15,84.25c0,.25,1.56,1.25,1.56,1.25,0,0,.12-2.12-.12-2.12-.55.15-1.05.45-1.44.87h0ZM87.15,82.94c.12.19,2-1.25,2-1.56s-1.87-1-2-1-.13,2.44,0,2.56h0ZM73.77,98.56l.31,1.31c.09.56.13,1.12.12,1.69.1-.62.17-1.25.19-1.87-.03-.49-.18-.96-.44-1.37l-.19.25ZM59.58,98.56s-.12.56-.25,1.56c-.09.68,0,1.37.25,2,0-.61.03-1.21.12-1.81l.31-1.44-.44-.31ZM66.58,108.13s.12,1.56.25,1.37.12-1.37.12-1.37h-.37ZM65.96,104c-.08.43-.21.85-.38,1.25-.27.56-.6,1.09-1,1.56.52-.24.96-.63,1.25-1.13.28-.48.47-1.01.56-1.56l-.44-.12ZM65.83,99.56c-.02.49-.11.97-.25,1.44l-.75,1.56c.56-.29,1.02-.75,1.31-1.31.26-.48.35-1.03.25-1.56l-.56-.12ZM65.83,91.63c-.09.77-.28,1.53-.56,2.25l-1,2.44s.75-.44,1.69-2.44c.31-.72.53-1.47.62-2.25h-.75ZM66.27,85.94s-.12.69-.31,1.56l-.56,1.69c.5-.5.84-1.13,1-1.81.19-.56.44-1.56.44-1.56l-.56.12ZM73.21,82.5c.55.56,1.07,1.14,1.56,1.75.44.56,1.44,2.25,1.44,2.25-.3-1.08-.72-2.13-1.25-3.12-.33-.52-.78-.95-1.31-1.25l-.44.37ZM75.77,78s.56,1.56.75,2c.29.68.72,1.3,1.25,1.81-.46-.7-.84-1.46-1.13-2.25l-.44-1.44-.44-.12ZM77.77,78.25c.41.93.89,1.83,1.44,2.69.62,1.01,1.38,1.94,2.25,2.75-.71-.93-1.32-1.94-1.81-3-.44-1-1-2.44-1-2.44h-.88ZM60.02,82.13c-.62.52-1.14,1.13-1.56,1.81-.42.97-.76,1.97-1,3,.44-.84.92-1.65,1.44-2.44.44-.56,1.56-1.69,1.56-1.69l-.44-.69ZM57.21,78.13s-.31,1-.44,1.56-1,2.25-1,2.25c.56-.61.99-1.34,1.25-2.12l.75-1.81-.56.12ZM54.77,78.56l-1,2.56c-.5,1.01-1.07,1.99-1.69,2.94,1.05-.74,1.87-1.76,2.37-2.94l1.19-2.56h-.87ZM64.4,61.38c-.24.36-.51.69-.81,1-.38.44-.82.82-1.31,1.13.47-.17.91-.4,1.31-.69.26-.26.49-.56.69-.87v-.56h.12ZM64.71,58.69c-.2.26-.39.53-.56.81-.25.27-.48.57-.69.87l.69-.44.44-.25.12-1ZM65.02,54.69c-.08.3-.18.59-.31.87-.13.34-.27.67-.44,1l.56-.87c.15-.16.26-.35.31-.56l-.12-.44ZM64.71,51.88s.12-.44,0-.62,0-.12-1-.12c-.45-.04-.89.18-1.13.56l1.13-.12c.44-.12,1,.31,1,.31ZM66.71,51.13s.12.12.56,0h.44s.12-.44-.19-.44c-.28.12-.56.27-.81.44ZM56.9,69.31c-.71-.74-1.29-1.61-1.69-2.56-.59-1.38-.7-2.92-.31-4.37,0,0-1.13,1.37-.25,4.5.22,1.04.82,1.95,1.69,2.56l.56-.12ZM49.77,71.19c-.66.06-1.33-.05-1.94-.31-.64-.18-1.27-.41-1.87-.69.46.36.94.7,1.44,1,.36.16.74.28,1.13.38l1.25-.38ZM51.52,66.5s-.44.12-2.44-1c-1.22-.63-2.21-1.64-2.81-2.87.31,1.38,1.17,2.57,2.37,3.31.88.66,1.91,1.09,3,1.25l-.13-.69ZM52.52,61.81c-.82-.84-1.5-1.81-2-2.87-.64-1.29-1.02-2.69-1.13-4.12-.21,1.57.07,3.16.81,4.56.54,1.15,1.26,2.2,2.12,3.12l.19-.69ZM55.02,58.13l.62-.62c-.76-1.32-1.28-2.76-1.56-4.25-.44-2.44-.4-4.95.12-7.37-1.01,2.23-1.36,4.7-1,7.12.37,1.78.98,3.51,1.81,5.12h0ZM84.02,70.75l1,.44,1.13-.44c.57-.3,1.1-.68,1.56-1.13l-1.81.69c-.61.22-1.24.36-1.88.44h0ZM77.33,69.31s.87-.56,1.56-2.81c.55-1.39.5-2.95-.12-4.31.32,1.33.21,2.73-.31,4-.45,1.08-1.11,2.06-1.94,2.87l.81.25ZM82.02,66.19l-.12.87s1.13,0,3.12-1.44,2.44-3.12,2.44-3.12c-.65,1.14-1.6,2.07-2.75,2.69-.87.4-1.77.74-2.69,1h0ZM80.9,61.38l.12.81c.94-.79,1.72-1.74,2.31-2.81.69-1.36,1.03-2.86,1-4.37-.11,1.46-.61,2.86-1.44,4.06-.58.84-1.25,1.62-2,2.31h0ZM78.46,57.94s1.19-1.56,1.87-5.12c.42-2.19.18-4.45-.69-6.5,0,0,1,2.56,0,6.69-.41,1.52-.99,2.99-1.75,4.37l.56.56ZM76.08,40.5c.12-.19,2.69.69,4.56,3.69,1.42,2.35,2.05,5.08,1.81,7.81,0,0,.56-.44,1-2.12,0-.31,2.25,1.56,2.69,5.37.13,1.81-.22,3.62-1,5.25.68-.4,1.28-.93,1.75-1.56.94-1.44.69-2.69.81-2.69s2.12,2.12,1.69,5.12c-.28,2.04-1.15,3.95-2.5,5.5.6-.17,1.17-.45,1.69-.81.5-.45.92-.98,1.25-1.56.31,0,1.13,1.25.19,4.56-.55,1.23-1.34,2.33-2.31,3.25.62.33,1.19.75,1.69,1.25.31.44.87,1.13.75,1.87s-.31,2.56,0,4.12c.16.65.2,1.33.12,2-.25.69-.87,1.13-.87,1.25-.07,1.46,0,2.93.19,4.37,0,.44,0,.75-.31.87s-.81.44-.81.69c.42.66.7,1.41.81,2.19.31,2.37-.56,3.25-.56,3.25-.42-.81-.9-1.58-1.44-2.31-1.81-1.81-1.37-2.5-1.37-2.5.2-.71.33-1.45.38-2.19.19-1.69-.12-2.25-.12-2.25-.08-.41-.08-.84,0-1.25v-2.75c0-.38-.12-.56-.44-.56s-1.56-.38-1.94-.56-.19.75,0,1,.56.75.56.87-.19.25-.56.44c-.33.08-.67.08-1,0,.13.56.37,1.09.69,1.56.38.72.91,1.34,1.56,1.81,0,.12-.12.75-1.87.75s-3.12-1.75-3.37-1.87-1,.31-1.87-.12c-.47-.26-.86-.65-1.13-1.13-.14-.25-.33-.46-.56-.62l-.69-.25c.33.33.6.71.81,1.13.65,1.4,1.06,2.9,1.19,4.44.11.99.3,1.98.56,2.94.25,1,.69,2.44,1.37,2.31s.31-1.56.44-1.75c.36-.59,1.13-.77,1.72-.4.16.1.3.24.4.4,0,.19-.56.19-.56.56s.87.87.87.87c.4.12.75.36,1,.69.56,1,.12,1.44.12,1.44,0,0-.31-.25-.56-.44-.17-.12-.39-.12-.56,0-.31.19.44.75.56,1,.44,1.56-.56,1.87-.56,1.87,0,0,0-1.56-1.44-1s-.25,1.69-.25,1.69c0,0-.75.31-1.44-.69s-.12-1.31-.56-1.31-.75.31-1,.19-.87-2-.87-2c.01-.91-.14-1.82-.44-2.69-.38-.75-1-2.31-1.81-1.87s0,.87,0,1-1.87.69-3.12-1.87c-.75-1.37-.44-3.12-1.44-3.12s-.87,1.31-.44,2.56,1.56,2.56,1.56,2.75-.56.38-1.56.56-.25,0-.25.38.25,2.19.81,3.12c1.31,2.44,2.44,2.56,2.44,2.56.37.12.76.12,1.13,0,.75-.25.87-.56,1-.56s1.31,2,.69,5.12c-.23,1.71-1.28,3.2-2.81,4-.12-.19.31-1.75-.31-3.87s-1.69-2.94-2.37-2.56-.56.75.25,2.19c.36.58.8,1.11,1.31,1.56-.27.28-.62.47-1,.56-1,.12-1.13,0-1.31.12s.44,1.25.75,1.81c.41.67.94,1.27,1.56,1.75-.26.38-.67.64-1.13.69-.52.08-1.04.08-1.56,0l-.56,1.69c-.75,2-1.19,2.44-1.31,2.44s-.87-.87-1.25-2.56c-.19-.69-.56-1.69-.56-1.69l-1.31.12c-1.25-.12-1.25-.44-1.44-.56s.56-.44,1.56-2,.75-1.81.75-1.81c-.43.07-.88.07-1.31,0-1.13-.19-1.13-.56-1.13-.56.6-.39,1.1-.93,1.44-1.56.44-1,.69-1.87.12-2.19s-1.81.31-2.25,2.31c-.45,1.33-.6,2.73-.44,4.12,0,0-2.12-.75-2.87-3.87-.45-1.72-.18-3.55.75-5.06.39.38.89.63,1.44.69,1.56,0,2.81-2.44,2.81-2.44.29-.58.52-1.19.69-1.81.25-.63.36-1.32.31-2-.34,0-.67-.04-1-.12-.69-.19-.69-.44-.69-.44.64-.73,1.17-1.55,1.56-2.44.25-2,.12-2.81-.44-2.81s-.75,1.69-1.13,2.56-.44,1.13-1.19,1.81-2.12.56-2.12.56c0,0,.44-.69,0-1s-1.56.87-1.81,2c-.21,1.03-.35,2.08-.44,3.12,0,0-.12,1-.56,1.31s-1-.19-1.31,0,.19.81-.56,1.56-1.37.38-1.37.38c0,0,.81-1.25-.19-1.69s-1.37,1-1.37,1c-.54-.22-.81-.84-.59-1.38,0-.02.02-.04.02-.05.12-.81.81-1.13.56-1.56-.16-.14-.4-.14-.56,0-.2.14-.36.33-.44.56,0,0-.56-.38-.19-1.37s2-.56,2-1.44-.81-.56-.81-.69.25-.75,1.25-.56,1.13,1.25,1.13,1.25c0,0-.12,1,.44,1s1.31-.31,1.87-4.81,1.94-6.12,1.94-6.12c0,0-.69,0-.81.44-.17.28-.36.55-.56.81-.21.28-.47.54-.75.75-.57.26-1.2.35-1.81.25-.31,0-1,.87-1.87,1.31s-1.13.56-1.69.56c-.58.05-1.15-.16-1.56-.56,0-.19,1.13-1,1.56-2l.69-1.56-1,.12c-.69,0-.81-.12-.81-.25s.56-.56.56-.87c.08-.33.08-.67,0-1-.68.12-1.35.31-2,.56-.25.12-.44.12-.44.44-.06,1.27-.06,2.54,0,3.81,0,.31-.12.56-.12.75-.04,1.39.11,2.78.44,4.12.12.69-.31,1.25-1.31,2.25s-1.37,2.44-1.56,2.44-.81-.75-.56-2.87c.24-.89.57-1.75,1-2.56-.31-.18-.58-.42-.81-.69-.31-.44,0-3.69,0-4.56,0-.24-.06-.48-.19-.69-.37-.4-.61-.9-.69-1.44,0-.87.12-2,.12-2,0,0,.12-1,.12-1.56s-.25-2.12,0-2.94c.41-1.07,1.25-1.91,2.31-2.31-.9-.85-1.63-1.87-2.12-3-1.13-2.81-.19-4.69,0-4.69s.56,1,1.25,1.56c.44.3.92.51,1.44.62,0,0-2.44-2.56-2.56-5.12-.31-4.12,1.44-6,1.56-6s-.12,1.31.69,2.69c.49.75,1.13,1.39,1.87,1.87,0,0-1.31-3.44-.87-5.81.75-4,2.56-5.12,2.69-5.12s.19.69.31,1.13.69,1,.69,1c-.12-1.93.14-3.86.75-5.69,1.69-4.56,5.5-5.94,5.69-5.81s-1.56,2.81-.87,6.25c.2,1.2.58,2.36,1.13,3.44.14-.86.33-1.72.56-2.56.87-1.87,1.44-2.44,1.56-2.44s-.56,4.37-.25,7.37.69,6.25.69,6.81c-.12,1.75-1.13,2.44-2.25,3.31-.69.6-.82,1.62-.31,2.37,1.56,1.69,2.69-.25,2.69-.25l-.81-.44c-.44-.31-.44-.56-.44-.56.54-.17,1.04-.47,1.44-.87.43-.44.8-.92,1.13-1.44l-.56-.12c-.19-.12-.44-.12-.44-.44s.56-.44,1.44-1.37c.33-.44.61-.92.81-1.44,0,0-.44,0-.56-.12-.16,0-.32-.07-.44-.19,0-.12,1.19-1.69,1.44-2.81s.31-2-.25-2.31c-.57-.3-1.26-.23-1.75.19-.14-.63-.07-1.29.19-1.87.33-.42.84-.67,1.37-.69q.31,0,.44-.12c.24.01.48-.05.69-.19.31,0,.75-.44,1-.56.55-.25,1.17-.3,1.75-.12.46.07.92.07,1.37,0,1.87-.12,2.44-1.13,2.75-1.13s.12,1.13-.19,1.56l-.69,1.25c-.07.24-.11.5-.12.75,0,.56.25.81.25,1.13,0,.47-.08.94-.25,1.37v.87c.25,1.31,1.25,2.56,1.25,2.69s-.25.19-.44.19h-.56c.2.57.49,1.1.87,1.56.69.81,1.44,1.25,1.44,1.37s-.31.31-.44.31l-.75.25,1.19,1.31c.69.56,1.56.69,1.56.81-.05.26-.21.49-.44.62-.23.17-.48.29-.75.38.15.65.77,1.08,1.44,1,1.44,0,1.56-1.56,1.56-1.56-.07-.86-.53-1.65-1.25-2.12-.82-.72-1.34-1.73-1.44-2.81,0,0,.25-2.31.56-4,.69-4.37-.12-9.81-.12-9.81,0,0,.44-.12,1.56,2.31.3.83.49,1.69.56,2.56.72-1.41,1.11-2.98,1.13-4.56,0-1.81-.39-3.6-1.13-5.25h0ZM46.08,74.13c.5-.28,1.02-.51,1.56-.69,0,0,.19.56,0,.69-.32.18-.65.33-1,.44v1.44l1-.31c.19,0,0,.75,0,.75l-1,.44v1.56l1-.31s.19.56,0,.56c-.53.3-1.1.53-1.69.69.31-.12.12-5.06.12-5.25h0ZM49.21,73.56v4l.75-.12s.12-.19.25-.19v-.25l-.12-3.56c-.01-.11-.06-.22-.12-.31h-.19l-.56.44ZM48.65,78.69l-.12-5.37,1.56-.56c.17-.12.39-.12.56,0,.17.05.29.2.31.38v4.44c-.01.2-.08.39-.19.56l-.56.31-1.56.25ZM72.52,70.31h.69s.19,5.56,0,5.56h-.69v-5.56ZM77.21,76.44v-5.56s.56,0,.69.12c.35.94.64,1.9.87,2.87v-2.69c0-.19.69,0,.69.12s.19,5.37,0,5.37h-.69l-.87-2.94v2.69c-.13.12-.69,0-.69,0ZM81.46,71.75c.44.12,1.31.12,1.31,1.25s.12,1-.31.87l-.44-.12v-.87c0-.12,0-.44-.81-.44s0,3.56,0,3.69c.03.18.19.32.38.31h.44v-1.13c.19,0,.75,0,.75.12v1.25c0,.31-.19.75-.87.56-.34.03-.68-.01-1-.12-.44-.12-.73-.54-.69-1v-4.12c0-.25.44-.56,1.25-.25ZM83.46,77.81c0-.25-.12-5.25,0-5.37s.56,0,.69.12v2.31l.87.12v-2.12c0-.12.69.12.69.12,0,0,.19,5.25,0,5.25l-.69-.12v-2.25l-.69-.31v2.25c-.31.19-.87-.12-.87,0ZM86.71,73.44c.19-.12.75.12.75.31s.12,5.06,0,5.25-.75-.19-.75-.31v-5.25ZM52.33,72.75c-.09.11-.13.24-.12.38v3.12c0,.75.31.62.56.44s.56-.25.56-.56v-3.25c0-.44-.25-.31-.44-.31l-.56.19ZM51.52,72.75c0-.38.22-.72.56-.87l1-.31c.56-.12.69.31.69.62s.12,3.94,0,4.37c-.03.37-.32.66-.69.69-.31,0-.56.19-1,.19s-.75,0-.75-.56.19-3.88.19-4.13ZM55.46,75l.56-.12c0-.19-.38-1.75-.38-1.75,0,0-.19,1.75-.19,1.87ZM54.46,77c.19-.31.87-5.56.87-5.69l.69-.12c.19,0,1.19,5.25,1.19,5.37s-.62.12-.75.12-.12-1-.25-1l-.87.19c0,.12-.12,1-.12,1-.24.09-.49.13-.75.12h0ZM58.33,71.44c-.19,0,0,1.31,0,1.56s0,.31.25.31.56-.19.56-.44c0-1.87,0-1.56-.81-1.44h0ZM57.58,70.88c.45-.03.89-.12,1.31-.25,1.13-.19,1,.25,1,2.25,0,.87-.44,1-.44,1l.87,2.25c-.24.09-.49.13-.75.12l-.81-2.25h-.31v2.44c-.12.12-.56.12-.69.12s-.19-5.69-.19-5.69h0ZM61.46,71l.12,4.31h.69c.31,0,.31-.44.31-.44v-3.56c0-.17-.14-.31-.31-.31h-.81ZM60.9,76.13l-.19-5.69,1.56-.25c.17-.1.39-.1.56,0,.18.07.3.24.31.44l.12,4.5c0,.19-.05.39-.12.56-.16.15-.35.26-.56.31l-1.69.13ZM65.15,70.75c-.56,0-.44,0-.44.69v2.87c0,.69.12.69.44.69s.56,0,.56-.69-.12-2.12-.12-2.87,0-.69-.44-.69ZM63.83,70.88c-.04-.34.21-.65.56-.69,0,0,0,0,0,0h1.19c.34-.04.65.21.69.56,0,.04,0,.09,0,.13v4.12c0,.44-.12.87-.69.87h-.87c-.34.04-.65-.21-.69-.56,0,0,0,0,0,0,0-.31-.19-4.12-.19-4.44h0ZM70.08,73.13v2h.56c.31,0,.31-.25.31-.44v-1.13c0-.25-.12-.44-.31-.44h-.56ZM70.08,72.31h.75c.12,0,.25-.31.25-.31v-.81c0-.15-.1-.28-.25-.31h-.75v1.44ZM69.4,75.69v-5.69h1.69c.38-.04.71.24.75.62,0,.04,0,.09,0,.13v1.13c0,.69-.31.87-.31.87.08.18.12.37.12.56v1.69c0,.12,0,.87-.69.87l-1.56-.19ZM75.52,74.31c0-.19-.31-1.75-.31-1.75,0,0-.25,1.56-.25,1.75h.56ZM76.65,76.25h-.69s-.19-.81-.19-.94l-.81-.19s-.19.87-.31.87-.69,0-.69-.12.81-5.44,1-5.44.69,0,.69.19,1,5.37,1,5.62h0Z" class="cls-1"/><path d="M210.58,81.56c-.03,2.5-2.07,4.5-4.56,4.5-2.45.03-4.47-1.92-4.5-4.37,0-.04,0-.08,0-.13h0v-17.81c-.03-2.45,1.92-4.47,4.37-4.5.04,0,.08,0,.13,0,2.49-.03,4.53,1.95,4.56,4.44,0,.02,0,.04,0,.06h6c.45-5.78-3.88-10.83-9.66-11.28s-10.83,3.88-11.28,9.66c-.04.54-.04,1.08,0,1.62v17.81c.45,5.82,5.53,10.17,11.34,9.72,5.19-.4,9.32-4.53,9.72-9.72h-6.13Z" class="cls-2"/><polygon points="243.27 91.06 237.27 91.06 237.27 75.69 228.46 75.69 228.46 91.06 222.52 91.06 222.52 54.38 228.46 54.38 228.46 69.75 237.27 69.75 237.27 54.38 243.27 54.38 243.27 91.06" class="cls-2"/><polygon points="189.58 91.06 183.58 91.06 183.58 75.69 174.65 64.19 174.65 91.06 168.83 91.06 168.83 54.38 174.65 54.38 183.58 65.75 183.58 54.38 189.58 54.38 189.58 91.06" class="cls-2"/><path d="M163.15,91.06h-6.25l-1.25-6h-7l-1.25,6h-6.12l7.94-36.81h5.69l8.25,36.81ZM154.46,79.25l-2.25-11.06-2.25,11.06h4.5Z" class="cls-2"/><rect height="36.79" width="5.94" y="54.38" x="129.46" class="cls-2"/><rect height="36.79" width="5.94" y="54.38" x="250.33" class="cls-2"/><path d="M116.71,64.94c0-2-.44-3.44-1.31-4.12s-2.25-1.31-4.12-1.31h-4.5v10.37h4.5c1.87,0,3.31-.44,4.12-1.25.81-.81,1.31-1.75,1.31-3.69ZM117.15,79.81c.05-1.31-.42-2.6-1.31-3.56-.88-1.04-2.2-1.62-3.56-1.56h-5.5v10.69h6.06c1.36.01,2.62-.7,3.31-1.87.7-1.1,1.05-2.38,1-3.69h0ZM122.52,80.56c0,6.94-2.56,10.62-8.69,10.62h-12.75v-36.81h13.31c2.56,0,3.88.87,5.31,2.75,1.53,1.94,2.32,4.35,2.25,6.81,0,3.37-.56,6.37-3.25,8.37,3.12,1.44,3.81,4.25,3.81,8.25h0Z" class="cls-2"/></svg>