<svg xml:space="preserve" style="max-height: 500px" viewBox="8.305732484076433 220.10191082802547 627.0828025477707 211.79617834394904" y="0px" x="0px" fill="white" xmlns:xlink="http://www.w3.org/1999/xlink" xmlns="http://www.w3.org/2000/svg" id="layer" version="1.1" width="627.0828025477707" height="211.79617834394904">
<path d="M320.8,314.1c0,25.4,9.1,51.5,39.1,51.5c30,0,39.4-26.1,39.4-51.5c0-25.4-9.1-52.8-39.4-52.8&#10;&#9;c-30.3,0-39.1,25.7-39.1,51.8 M304.9,246.7c15.7-12.1,35.2-18.4,55-17.9c29.5-1.7,57.4,13.3,72.3,38.8c14.5-25.3,41.9-40.3,71-38.8&#10;&#9;c18.2-2.1,36.5,3.2,50.8,14.7c14.3,11.5,23.3,28.3,25.1,46.5h-43.3c-1.4-16.6-15.9-29-32.6-27.7c-28.3,0-37.8,28.7-37.8,52.4&#10;&#9;c0,23.8,9.1,50.8,36.8,50.8c8.3,0.3,16.3-2.3,22.8-7.5l-30.3-18.9l51.4,3.6l12-48.9l12.7,49.8l51.1-3.6l-43.3,27.4l19.2,47.9&#10;&#9;l-39.7-32.6l-39.4,32.6l7.2-18.2c-7.8,2-15.8,3-23.8,2.9c-28.6,1.1-55.6-13.5-70.3-38.1c-15.1,25-42.8,39.7-72,38.1&#10;&#9;c-42.5,2.6-79.2-29.2-82.7-71.6L255,393.6h-49.5l-23.8-69H66.5c0,28.3,15,41,39.7,41c14.8,0.9,28.7-7.3,34.8-20.8h39.1&#10;&#9;c-8.7,34-40.5,56.9-75.5,54.4c-22.6,1-44.5-7.7-60.3-24s-23.8-38.5-22.1-61c-1.2-22.5,7-44.4,22.6-60.6s37.3-25.1,59.7-24.7&#10;&#9;c18.3-0.6,36.2,5.7,50.1,17.6l-4.6-13.4h46.6l32.6,110.4l0,0L261.9,233h47.9L304.9,246.7z M66.5,296.5h72.3&#10;&#9;c-4.2-22.5-13.7-32.6-35.5-32.6C84.2,262.8,67.7,277.4,66.5,296.5 M549.1,363.3l-8.8,21.8l18.2-15l17.3,15l-8.8-21.8l20.2-12.7&#10;&#9;h-23.8l-5.5-23.1l-5.9,23.1h-23.8L549.1,363.3z" id="Shape"/>
</svg>