<svg viewBox="4.45859872611465 51.483050847457626 289.171974522293 48.305084745762706" fill="white" xmlns="http://www.w3.org/2000/svg" id="Ebene_1" style="max-height: 500px" width="289.171974522293" height="48.305084745762706"><polygon points="246.77 57.23 231.22 57.23 226.39 66.08 242.02 66.08 227.78 92.77 245.54 92.77 259.79 66.08 274.44 66.08 290 57.23 246.77 57.23"/><polygon points="88.51 57.23 69.52 92.77 85.57 92.77 104.64 57.23 88.51 57.23"/><path d="m118.32,57.23c-4.91,0-11.05,4.01-13.67,8.84l-14.33,26.69h9.09c4.83,0,10.81-3.93,13.43-8.76l8.43-15.72h0c1.31-2.46,4.58-2.62,4.99-2.7h18.42l-7.04,13.18h-12.53l-9.74,5.65h19.24l-4.5,8.35h18.99l19.08-35.53h-49.86Z"/><path d="m219.92,57.23h-46.83l-18.99,35.53h17.77l14.49-27.18h16.13s4.09,0,2.29,3.27l-12.69,23.91h17.77l14.25-26.69c2.62-4.83.74-8.84-4.18-8.84"/><path d="m76.07,70.91h-20.47l-13.51,7.86h11.95l-3.11,5.65h-18.67l9.01-16.78c.7-1.21,1.96-1.98,3.36-2.05h25.13l14.65-8.35h-46.42c-4.91,0-11.05,3.93-13.67,8.84l-14.33,26.69h45.77c4.91,0,10.89-3.93,13.51-8.76l6.96-13.1h-.16Z"/></svg>