<svg xml:space="preserve" style="max-height: 500px" viewBox="0 235.32908704883226 634.004246284501 177.18895966029723" y="0px" x="0px" xmlns:xlink="http://www.w3.org/1999/xlink" xmlns="http://www.w3.org/2000/svg" id="layer" version="1.1" width="634.004246284501" height="177.18895966029723" fill="white">
<path d="M289.8,322c0,0,6-6.6,11.4-12.3c6.9-7.5,9.4-13.2,9.4-25c0-11.7,0-34.7,0-34.7h-21.6c0,0,0,22.7,0,30.4&#10;&#9;c0,11.6-2.9,12.4-7.6,17.8c-3.6,4-6.3,6.7-6.3,6.7c-0.8,0.9-1.5,1.7-2.2,2.5V250h-21.6V394h21.6v-57.6l2.2,2.5l6.3,6.9&#10;&#9;c4.7,5.4,7.6,6.2,7.6,17.8V394h21.6c0,0,0-22.9,0-34.7c0-11.7-2.5-17.5-9.4-25L289.8,322z M356.2,305c-4.2-4.5-6.2-5.8-6.2-13.8&#10;&#9;v-12.9c0-4.1,3-7.4,6.9-7.4h2.2c3.8,0,7,3.3,7,7.4v25h21.6v-24.9c0-16.9-12.8-30.6-28.5-30.6H357v-0.1c-15.8,0-28.5,13.7-28.5,30.6&#10;&#9;c0,0,0,3.8,0,15.3c0,11.4,2.4,16.7,7.6,22.4l23.9,23.3c4.2,4.5,6.2,5.8,6.2,13.8c0,6.3,0,12.8,0,12.8c0,4.1-3.1,7.4-7,7.5H357&#10;&#9;c-3.8-0.1-7-3.4-7-7.5l0-24.9h-21.6v24.9c0,16.9,12.8,30.5,28.5,30.5h2.2v0h0c15.8,0,28.5-13.7,28.5-30.6c0,0,0-3.8,0-15.2&#10;&#9;c0-11.4-2.4-16.7-7.5-22.4L356.2,305z M211.9,348.7v17.2c0,4.1-3.1,7.4-7,7.4h-2.2c-3.8,0-7-3.3-7-7.4v-87.6c0-4,3.1-7.4,7-7.4h2.2&#10;&#9;c3.8,0,7,3.4,7,7.4v25h21.6l0-24.9c0-16.9-12.8-30.6-28.5-30.6h0h-2.2c-15.8,0-28.5,13.7-28.5,30.6l0,87.5&#10;&#9;c0,16.9,12.8,30.6,28.6,30.6v0h2.2v0c15.8,0,28.6-13.7,28.6-30.6v-17.2L211.9,348.7L211.9,348.7z M520.3,365.9c0,4.1-3.1,7.4-7,7.4&#10;&#9;h-2.2c-3.8,0-7-3.3-7-7.4v-87.6c0-4,3.1-7.4,7-7.4h2.2c3.8,0,7,3.4,7,7.4V365.9z M513.4,247.8L513.4,247.8h-2.3&#10;&#9;c-15.8,0-28.5,13.7-28.5,30.6l0,87.5c0,16.9,12.8,30.6,28.6,30.6v0h2.2v0c15.7,0,28.5-13.7,28.6-30.6v-87.5&#10;&#9;C541.9,261.4,529.1,247.8,513.4,247.8L513.4,247.8z M134.8,365.9c0,4.1-3.1,7.4-7,7.4h-2.2c-3.8,0-7-3.3-7-7.4v-87.6&#10;&#9;c0-4,3.1-7.4,7-7.4h2.2c3.8,0,7,3.4,7,7.4V365.9z M127.9,247.8L127.9,247.8h-2.2c-15.7,0-28.5,13.7-28.5,30.6l0,87.5&#10;&#9;c0,16.9,12.8,30.6,28.6,30.6v0h2.2v0c15.8,0,28.6-13.7,28.6-30.6l-0.1-87.5C156.5,261.4,143.7,247.8,127.9,247.8L127.9,247.8z&#10;&#9; M606.8,323.1l-0.6-0.5l0.6-0.5c0,0,3.7-3.2,6.7-6.9c5.4-6.7,6.6-9.4,6.6-22.2c0-18,0-42.8,0-42.8l-21.6,0v42.1&#10;&#9;c0,5-3.1,8.9-4.2,10.5c-1.1,1.7-2.7,2.9-2.7,2.9l-1.6,1.5l-1.7-1.5c0,0-1.7-1.3-2.7-2.9c-1-1.7-4.2-5.5-4.2-10.5v-42.1l-21.6,0v42.8&#10;&#9;c0,12.8,1.2,15.5,6.6,22.2c2.9,3.6,6.6,6.9,6.6,6.9l0.6,0.5l-0.6,0.5l-6.6,7c-5.4,6.7-6.6,9.3-6.6,22.2V395l21.6,0&#10;&#9;c0,0,0-37.1,0-42.1s3.1-8.8,4.2-10.5l2.7-2.9l1.7-1.5l1.6,1.5l2.7,2.9c1.1,1.7,4.2,5.4,4.2,10.5s0,42.1,0,42.1l21.6,0v-42.8&#10;&#9;c0-12.8-1.1-15.5-6.5-22.2L606.8,323.1z M443.2,310.5h-16.1v-60.4h-21.6V394h21.6v-60.3l16.1,0l0,60.4h21.6l0-143.8h-21.6V310.5z&#10;&#9; M57.7,303.7c0,4.1-3.1,7.4-6.9,7.4h-9.1v-38.5h9.1c3.8,0,6.9,3.3,6.9,7.4V303.7z M69.5,321.9c6-5.6,9.8-13.8,9.8-23.1v-18.3&#10;&#9;c0-16.9-12.8-30.5-28.5-30.5H20l0.1,143.9l21.6,0v-60h9.1c3.9,0,7,3.3,6.9,7.4l0.1,52.6h21.6l0-48.9&#10;&#9;C79.4,335.8,75.6,327.5,69.5,321.9L69.5,321.9z"/>
</svg>