<svg xml:space="preserve" style="max-height: 500px" viewBox="-144.69426751592357 165.79617834394904 625.6985138004246 221.48619957537153" y="0px" x="0px" xmlns:xlink="http://www.w3.org/1999/xlink" xmlns="http://www.w3.org/2000/svg" id="layer" version="1.1" width="625.6985138004246" height="221.48619957537153">
<path d="M327.7,197.4l-40.2,68.8h-35.1l40.3-68.8h-38.2l-40.4,68.8h-42.1l-5.6-54.4l-31.9,54.4h-35l51.4-87.7h42.7l5.6,53.7&#10;&#9;l31.3-53.7h138.4l-11.1,18.9H327.7z M99.1,178.5H66.6l-100.3,87.7H99.1V178.5z M64.5,247.3H23.2L65.6,210L64.5,247.3z M440.5,178.5&#10;&#9;H408l-100.1,87.7h132.6L440.5,178.5z M405.9,247.3h-41.4L407,210L405.9,247.3z M-99.9,212.9L-99.9,212.9&#10;&#9;c-6.1,10.3-2.8,18.8,7.6,18.9h41.6l-9.1,15.5H-120l-11.1,18.9h76.5c10.4,0,23.9-8.4,30-18.9l0,0l9.1-15.5l0,0&#10;&#9;c6.1-10.4,2.6-18.9-7.8-18.9h-41.4l9.1-15.5H4.6l11.1-18.8h-76.5c-10.4,0-23.9,8.4-30,18.9l0,0L-99.9,212.9z M203.2,352&#10;&#9;c-6.1,10.4-2.6,18.8,7.6,18.9h64.7c10.4,0,23.9-8.4,30-18.9l0,0l29.2-49.9H394l-80.4,68.8h100l11.1-18.9h-44.7l75.1-68.8H310.7&#10;&#9;L270.4,352h-32.1l40.3-68.8h-35.1L203.2,352z M28.4,352l29.2-49.9h49.9l11.1-18.9H52.5c-10.4,0-23.9,8.4-30,18.9l0,0L-6.7,352l0,0&#10;&#9;l0,0l0,0c-6.1,10.4-2.6,18.8,7.6,18.9h66.3l11.1-19L28.4,352z M133.6,283.2l-51.4,87.7h35l16.9-28.9h7l12.2,28.9h36.9l-14.6-28.9&#10;&#9;l0,0c10.4,0,23.9-8.4,30-18.9l0,0l12.2-20.9l0,0c6.1-10.4,2.6-18.9-7.8-18.9L133.6,283.2L133.6,283.2z M170.5,323.1h-25.3l12.2-20.9&#10;&#9;h25.3L170.5,323.1z M454.7,179.9h-3.8v8.1h-2.2v-8.1h-3.8v-1.4h9.8L454.7,179.9z M456.4,178.5h3.2l2.5,5.6c0.3,0.8,0.5,1.3,0.5,1.3&#10;&#9;l0,0c0,0,0-0.5,0.5-1.3l2.5-5.7h3.2v9.4h-2.2v-7.6l0,0c-0.2,0.6-0.4,1.2-0.7,1.8l-2.6,5.8h-1.8l-2.4-5.8c-0.3-0.6-0.5-1.2-0.7-1.8&#10;&#9;l0,0v7.6h-2L456.4,178.5z"/>
</svg>