<svg viewBox="5.732484076433121 50.21186440677966 291.0828025477707 50.21186440677966" xmlns="http://www.w3.org/2000/svg" id="Ebene_1" style="max-height: 500px" width="291.0828025477707" height="50.21186440677966"><path d="m155.46,66.76l-5.3,9.06h4.41l.9-9.06Zm-91.05-7.67h-4.24l-8,18.6c1.22-.24,4.89-.73,5.79-1.06s1.96-1.39,3.26-4.08,3.18-7.67,4.16-10.12.08-3.34-.98-3.34h0Zm168.47-2.61c2.37,0,3.43,1.96,1.14,4.24s-25.05,27.09-25.78,27.98-1.14,1.71.24,1.71h13.79l-1.22,3.18h-21.37c-2.53,0-3.43-1.71-1.06-4.32l26.43-28.47c.9-.98.65-1.39-.24-1.39h-12.48l1.06-2.94h19.5Zm-45.93,0s-12.4,29.53-13.38,31.57.24,2.45,1.39,2.45h8.16l-1.22,3.1h-14.77c-2.77,0-3.75-1.79-2.28-5.3s13.79-31.82,13.79-31.82h8.32Zm-22.84,0l-3.18,37.12h-8.24l1.63-15.09h-6.77l-9.95,15.09h-7.91l23.5-34.75c.82-1.22,2.61-2.45,3.75-2.45l7.18.08Zm-21.95,0l-15.75,37.2h-8.65l16.07-37.2h8.32Zm67.3,0l-15.75,37.12h-8.73l16.15-37.12h8.32Zm-80.03,0l-1.22,2.61h-11.01c-2.69,0-3.02,1.14-3.67,2.45s-10.77,25.29-11.42,26.6-.57,2.28,1.22,2.28h11.18l-.98,3.18h-17.78c-3.1,0-3.75-2.04-2.61-4.81s11.83-27.41,12.65-29.61c.82-2.2,3.18-2.77,5.71-2.77l17.95.08Zm-26.11,0l-1.31,2.53h-9.95c-2.69,0-3.67.82-4.65,2.86s-4.89,11.67-4.89,11.67h10.61l-1.39,2.69h-10.36l-4.89,11.34c-.98,2.28-.82,2.94.9,2.94h11.18l-1.31,3.18h-17.46c-2.45,0-4-1.22-2.53-4.89s10.85-25.54,12.16-28.47,3.34-3.83,6.28-3.83h17.62Zm159.41-.08l-1.31,2.53h-9.87c-2.77,0-3.75.73-4.65,2.77s-4.98,11.67-4.98,11.67h10.69l-1.47,2.69h-10.28l-4.98,11.42c-.98,2.28-.82,2.94.9,2.94h11.18l-1.31,3.18h-17.46c-2.37,0-4-1.14-2.53-4.89l12.16-28.39c1.31-2.94,3.34-3.92,6.36-3.92h17.54Zm-191.47.08c3.02,0,4.41,2.37,3.18,5.71s-2.69,6.44-4.81,11.18-3.59,5.3-7.51,5.87l-11.5,1.63-5.63,12.81h-8.08l16.4-37.12,17.95-.08Zm-22.27.08l-1.31,2.53h-11.91c-1.63,0-2.53.98-3.34,2.37s-1.14,2.53-1.96,4.24-.73,3.59.82,4.81,3.26,2.86,4.81,4.16c2.86,2.53,3.67,3.67,1.39,9.06-1.79,4.08-.9,2.28-2.53,5.71-1.63,3.43-3.34,4.24-6.12,4.24H10l1.63-3.1h11.67c2.12,0,2.69-1.06,3.59-2.94.89-1.66,1.68-3.38,2.37-5.14,1.22-2.69,1.47-4-.08-5.55s-3.59-3.18-5.96-5.3-2.2-2.61-.98-5.55,1.63-3.83,2.77-6.61,3.34-2.94,5.55-2.94h18.44Zm215.05,33.86h2.12c2.12,0,2.69-1.06,3.43-2.61s9.87-22.6,10.93-25.21.33-3.26-1.31-3.26h-5.47l-13.3,31.08h3.59Zm-13.22,3.1l15.91-37.2h20.23c2.94-.08,3.51,3.02,2.69,5.14s-10.61,24.64-11.75,27.33-2.86,4.73-5.71,4.73h-21.37Z"/></svg>